<?xml version="1.0" encoding="utf-8" standalone="no"?>
<!DOCTYPE svg PUBLIC "-//W3C//DTD SVG 1.1//EN"
  "http://www.w3.org/Graphics/SVG/1.1/DTD/svg11.dtd">
<svg height="505.097812pt" version="1.1" viewBox="0 0 617.028906 505.097812" width="617.028906pt" xmlns="http://www.w3.org/2000/svg" xmlns:xlink="http://www.w3.org/1999/xlink">
 <metadata>
  <rdf:RDF xmlns:cc="http://creativecommons.org/ns#" xmlns:dc="http://purl.org/dc/elements/1.1/" xmlns:rdf="http://www.w3.org/1999/02/22-rdf-syntax-ns#">
   <cc:Work>
    <dc:type rdf:resource="http://purl.org/dc/dcmitype/StillImage"/>
    <dc:date>2023-09-25T15:59:13.827997</dc:date>
    <dc:format>image/svg+xml</dc:format>
    <dc:creator>
     <cc:Agent>
      <dc:title>Matplotlib v3.4.3, https://matplotlib.org/</dc:title>
     </cc:Agent>
    </dc:creator>
   </cc:Work>
  </rdf:RDF>
 </metadata>
 <defs>
  <style type="text/css">*{stroke-linecap:butt;stroke-linejoin:round;}</style>
 </defs>
 <g id="figure_1">
  <g id="patch_1">
   <path d="M 0 505.097812 
L 617.028906 505.097812 
L 617.028906 0 
L 0 0 
z
" style="fill:#ffffff;"/>
  </g>
  <g id="axes_1">
   <g id="patch_2">
    <path d="M 55.428906 462.238125 
L 613.428906 462.238125 
L 613.428906 18.718125 
L 55.428906 18.718125 
z
" style="fill:#eaeaf2;"/>
   </g>
   <g id="matplotlib.axis_1">
    <g id="xtick_1">
     <g id="line2d_1">
      <path clip-path="url(#pc7538331e0)" d="M 139.546436 462.238125 
L 139.546436 18.718125 
" style="fill:none;stroke:#ffffff;stroke-linecap:round;"/>
     </g>
     <g id="text_1">
      <!-- 0 -->
      <g style="fill:#262626;" transform="translate(136.047061 483.596406)scale(0.11 -0.11)">
       <defs>
        <path d="M 2034 4250 
Q 1547 4250 1301 3770 
Q 1056 3291 1056 2328 
Q 1056 1369 1301 889 
Q 1547 409 2034 409 
Q 2525 409 2770 889 
Q 3016 1369 3016 2328 
Q 3016 3291 2770 3770 
Q 2525 4250 2034 4250 
z
M 2034 4750 
Q 2819 4750 3233 4129 
Q 3647 3509 3647 2328 
Q 3647 1150 3233 529 
Q 2819 -91 2034 -91 
Q 1250 -91 836 529 
Q 422 1150 422 2328 
Q 422 3509 836 4129 
Q 1250 4750 2034 4750 
z
" id="DejaVuSans-30" transform="scale(0.015625)"/>
       </defs>
       <use xlink:href="#DejaVuSans-30"/>
      </g>
     </g>
    </g>
    <g id="xtick_2">
     <g id="line2d_2">
      <path clip-path="url(#pc7538331e0)" d="M 251.72703 462.238125 
L 251.72703 18.718125 
" style="fill:none;stroke:#ffffff;stroke-linecap:round;"/>
     </g>
     <g id="text_2">
      <!-- 50 -->
      <g style="fill:#262626;" transform="translate(244.72828 483.596406)scale(0.11 -0.11)">
       <defs>
        <path d="M 691 4666 
L 3169 4666 
L 3169 4134 
L 1269 4134 
L 1269 2991 
Q 1406 3038 1543 3061 
Q 1681 3084 1819 3084 
Q 2600 3084 3056 2656 
Q 3513 2228 3513 1497 
Q 3513 744 3044 326 
Q 2575 -91 1722 -91 
Q 1428 -91 1123 -41 
Q 819 9 494 109 
L 494 744 
Q 775 591 1075 516 
Q 1375 441 1709 441 
Q 2250 441 2565 725 
Q 2881 1009 2881 1497 
Q 2881 1984 2565 2268 
Q 2250 2553 1709 2553 
Q 1456 2553 1204 2497 
Q 953 2441 691 2322 
L 691 4666 
z
" id="DejaVuSans-35" transform="scale(0.015625)"/>
       </defs>
       <use xlink:href="#DejaVuSans-35"/>
       <use x="63.623047" xlink:href="#DejaVuSans-30"/>
      </g>
     </g>
    </g>
    <g id="xtick_3">
     <g id="line2d_3">
      <path clip-path="url(#pc7538331e0)" d="M 363.907623 462.238125 
L 363.907623 18.718125 
" style="fill:none;stroke:#ffffff;stroke-linecap:round;"/>
     </g>
     <g id="text_3">
      <!-- 100 -->
      <g style="fill:#262626;" transform="translate(353.409498 483.596406)scale(0.11 -0.11)">
       <defs>
        <path d="M 794 531 
L 1825 531 
L 1825 4091 
L 703 3866 
L 703 4441 
L 1819 4666 
L 2450 4666 
L 2450 531 
L 3481 531 
L 3481 0 
L 794 0 
L 794 531 
z
" id="DejaVuSans-31" transform="scale(0.015625)"/>
       </defs>
       <use xlink:href="#DejaVuSans-31"/>
       <use x="63.623047" xlink:href="#DejaVuSans-30"/>
       <use x="127.246094" xlink:href="#DejaVuSans-30"/>
      </g>
     </g>
    </g>
    <g id="xtick_4">
     <g id="line2d_4">
      <path clip-path="url(#pc7538331e0)" d="M 476.088217 462.238125 
L 476.088217 18.718125 
" style="fill:none;stroke:#ffffff;stroke-linecap:round;"/>
     </g>
     <g id="text_4">
      <!-- 150 -->
      <g style="fill:#262626;" transform="translate(465.590092 483.596406)scale(0.11 -0.11)">
       <use xlink:href="#DejaVuSans-31"/>
       <use x="63.623047" xlink:href="#DejaVuSans-35"/>
       <use x="127.246094" xlink:href="#DejaVuSans-30"/>
      </g>
     </g>
    </g>
    <g id="xtick_5">
     <g id="line2d_5">
      <path clip-path="url(#pc7538331e0)" d="M 588.26881 462.238125 
L 588.26881 18.718125 
" style="fill:none;stroke:#ffffff;stroke-linecap:round;"/>
     </g>
     <g id="text_5">
      <!-- 200 -->
      <g style="fill:#262626;" transform="translate(577.770685 483.596406)scale(0.11 -0.11)">
       <defs>
        <path d="M 1228 531 
L 3431 531 
L 3431 0 
L 469 0 
L 469 531 
Q 828 903 1448 1529 
Q 2069 2156 2228 2338 
Q 2531 2678 2651 2914 
Q 2772 3150 2772 3378 
Q 2772 3750 2511 3984 
Q 2250 4219 1831 4219 
Q 1534 4219 1204 4116 
Q 875 4013 500 3803 
L 500 4441 
Q 881 4594 1212 4672 
Q 1544 4750 1819 4750 
Q 2544 4750 2975 4387 
Q 3406 4025 3406 3419 
Q 3406 3131 3298 2873 
Q 3191 2616 2906 2266 
Q 2828 2175 2409 1742 
Q 1991 1309 1228 531 
z
" id="DejaVuSans-32" transform="scale(0.015625)"/>
       </defs>
       <use xlink:href="#DejaVuSans-32"/>
       <use x="63.623047" xlink:href="#DejaVuSans-30"/>
       <use x="127.246094" xlink:href="#DejaVuSans-30"/>
      </g>
     </g>
    </g>
    <g id="text_6">
     <!-- Principal Component 1 -->
     <g style="fill:#262626;" transform="translate(266.395469 499.002187)scale(0.12 -0.12)">
      <defs>
       <path d="M 1259 4147 
L 1259 2394 
L 2053 2394 
Q 2494 2394 2734 2622 
Q 2975 2850 2975 3272 
Q 2975 3691 2734 3919 
Q 2494 4147 2053 4147 
L 1259 4147 
z
M 628 4666 
L 2053 4666 
Q 2838 4666 3239 4311 
Q 3641 3956 3641 3272 
Q 3641 2581 3239 2228 
Q 2838 1875 2053 1875 
L 1259 1875 
L 1259 0 
L 628 0 
L 628 4666 
z
" id="DejaVuSans-50" transform="scale(0.015625)"/>
       <path d="M 2631 2963 
Q 2534 3019 2420 3045 
Q 2306 3072 2169 3072 
Q 1681 3072 1420 2755 
Q 1159 2438 1159 1844 
L 1159 0 
L 581 0 
L 581 3500 
L 1159 3500 
L 1159 2956 
Q 1341 3275 1631 3429 
Q 1922 3584 2338 3584 
Q 2397 3584 2469 3576 
Q 2541 3569 2628 3553 
L 2631 2963 
z
" id="DejaVuSans-72" transform="scale(0.015625)"/>
       <path d="M 603 3500 
L 1178 3500 
L 1178 0 
L 603 0 
L 603 3500 
z
M 603 4863 
L 1178 4863 
L 1178 4134 
L 603 4134 
L 603 4863 
z
" id="DejaVuSans-69" transform="scale(0.015625)"/>
       <path d="M 3513 2113 
L 3513 0 
L 2938 0 
L 2938 2094 
Q 2938 2591 2744 2837 
Q 2550 3084 2163 3084 
Q 1697 3084 1428 2787 
Q 1159 2491 1159 1978 
L 1159 0 
L 581 0 
L 581 3500 
L 1159 3500 
L 1159 2956 
Q 1366 3272 1645 3428 
Q 1925 3584 2291 3584 
Q 2894 3584 3203 3211 
Q 3513 2838 3513 2113 
z
" id="DejaVuSans-6e" transform="scale(0.015625)"/>
       <path d="M 3122 3366 
L 3122 2828 
Q 2878 2963 2633 3030 
Q 2388 3097 2138 3097 
Q 1578 3097 1268 2742 
Q 959 2388 959 1747 
Q 959 1106 1268 751 
Q 1578 397 2138 397 
Q 2388 397 2633 464 
Q 2878 531 3122 666 
L 3122 134 
Q 2881 22 2623 -34 
Q 2366 -91 2075 -91 
Q 1284 -91 818 406 
Q 353 903 353 1747 
Q 353 2603 823 3093 
Q 1294 3584 2113 3584 
Q 2378 3584 2631 3529 
Q 2884 3475 3122 3366 
z
" id="DejaVuSans-63" transform="scale(0.015625)"/>
       <path d="M 1159 525 
L 1159 -1331 
L 581 -1331 
L 581 3500 
L 1159 3500 
L 1159 2969 
Q 1341 3281 1617 3432 
Q 1894 3584 2278 3584 
Q 2916 3584 3314 3078 
Q 3713 2572 3713 1747 
Q 3713 922 3314 415 
Q 2916 -91 2278 -91 
Q 1894 -91 1617 61 
Q 1341 213 1159 525 
z
M 3116 1747 
Q 3116 2381 2855 2742 
Q 2594 3103 2138 3103 
Q 1681 3103 1420 2742 
Q 1159 2381 1159 1747 
Q 1159 1113 1420 752 
Q 1681 391 2138 391 
Q 2594 391 2855 752 
Q 3116 1113 3116 1747 
z
" id="DejaVuSans-70" transform="scale(0.015625)"/>
       <path d="M 2194 1759 
Q 1497 1759 1228 1600 
Q 959 1441 959 1056 
Q 959 750 1161 570 
Q 1363 391 1709 391 
Q 2188 391 2477 730 
Q 2766 1069 2766 1631 
L 2766 1759 
L 2194 1759 
z
M 3341 1997 
L 3341 0 
L 2766 0 
L 2766 531 
Q 2569 213 2275 61 
Q 1981 -91 1556 -91 
Q 1019 -91 701 211 
Q 384 513 384 1019 
Q 384 1609 779 1909 
Q 1175 2209 1959 2209 
L 2766 2209 
L 2766 2266 
Q 2766 2663 2505 2880 
Q 2244 3097 1772 3097 
Q 1472 3097 1187 3025 
Q 903 2953 641 2809 
L 641 3341 
Q 956 3463 1253 3523 
Q 1550 3584 1831 3584 
Q 2591 3584 2966 3190 
Q 3341 2797 3341 1997 
z
" id="DejaVuSans-61" transform="scale(0.015625)"/>
       <path d="M 603 4863 
L 1178 4863 
L 1178 0 
L 603 0 
L 603 4863 
z
" id="DejaVuSans-6c" transform="scale(0.015625)"/>
       <path id="DejaVuSans-20" transform="scale(0.015625)"/>
       <path d="M 4122 4306 
L 4122 3641 
Q 3803 3938 3442 4084 
Q 3081 4231 2675 4231 
Q 1875 4231 1450 3742 
Q 1025 3253 1025 2328 
Q 1025 1406 1450 917 
Q 1875 428 2675 428 
Q 3081 428 3442 575 
Q 3803 722 4122 1019 
L 4122 359 
Q 3791 134 3420 21 
Q 3050 -91 2638 -91 
Q 1578 -91 968 557 
Q 359 1206 359 2328 
Q 359 3453 968 4101 
Q 1578 4750 2638 4750 
Q 3056 4750 3426 4639 
Q 3797 4528 4122 4306 
z
" id="DejaVuSans-43" transform="scale(0.015625)"/>
       <path d="M 1959 3097 
Q 1497 3097 1228 2736 
Q 959 2375 959 1747 
Q 959 1119 1226 758 
Q 1494 397 1959 397 
Q 2419 397 2687 759 
Q 2956 1122 2956 1747 
Q 2956 2369 2687 2733 
Q 2419 3097 1959 3097 
z
M 1959 3584 
Q 2709 3584 3137 3096 
Q 3566 2609 3566 1747 
Q 3566 888 3137 398 
Q 2709 -91 1959 -91 
Q 1206 -91 779 398 
Q 353 888 353 1747 
Q 353 2609 779 3096 
Q 1206 3584 1959 3584 
z
" id="DejaVuSans-6f" transform="scale(0.015625)"/>
       <path d="M 3328 2828 
Q 3544 3216 3844 3400 
Q 4144 3584 4550 3584 
Q 5097 3584 5394 3201 
Q 5691 2819 5691 2113 
L 5691 0 
L 5113 0 
L 5113 2094 
Q 5113 2597 4934 2840 
Q 4756 3084 4391 3084 
Q 3944 3084 3684 2787 
Q 3425 2491 3425 1978 
L 3425 0 
L 2847 0 
L 2847 2094 
Q 2847 2600 2669 2842 
Q 2491 3084 2119 3084 
Q 1678 3084 1418 2786 
Q 1159 2488 1159 1978 
L 1159 0 
L 581 0 
L 581 3500 
L 1159 3500 
L 1159 2956 
Q 1356 3278 1631 3431 
Q 1906 3584 2284 3584 
Q 2666 3584 2933 3390 
Q 3200 3197 3328 2828 
z
" id="DejaVuSans-6d" transform="scale(0.015625)"/>
       <path d="M 3597 1894 
L 3597 1613 
L 953 1613 
Q 991 1019 1311 708 
Q 1631 397 2203 397 
Q 2534 397 2845 478 
Q 3156 559 3463 722 
L 3463 178 
Q 3153 47 2828 -22 
Q 2503 -91 2169 -91 
Q 1331 -91 842 396 
Q 353 884 353 1716 
Q 353 2575 817 3079 
Q 1281 3584 2069 3584 
Q 2775 3584 3186 3129 
Q 3597 2675 3597 1894 
z
M 3022 2063 
Q 3016 2534 2758 2815 
Q 2500 3097 2075 3097 
Q 1594 3097 1305 2825 
Q 1016 2553 972 2059 
L 3022 2063 
z
" id="DejaVuSans-65" transform="scale(0.015625)"/>
       <path d="M 1172 4494 
L 1172 3500 
L 2356 3500 
L 2356 3053 
L 1172 3053 
L 1172 1153 
Q 1172 725 1289 603 
Q 1406 481 1766 481 
L 2356 481 
L 2356 0 
L 1766 0 
Q 1100 0 847 248 
Q 594 497 594 1153 
L 594 3053 
L 172 3053 
L 172 3500 
L 594 3500 
L 594 4494 
L 1172 4494 
z
" id="DejaVuSans-74" transform="scale(0.015625)"/>
      </defs>
      <use xlink:href="#DejaVuSans-50"/>
      <use x="58.552734" xlink:href="#DejaVuSans-72"/>
      <use x="99.666016" xlink:href="#DejaVuSans-69"/>
      <use x="127.449219" xlink:href="#DejaVuSans-6e"/>
      <use x="190.828125" xlink:href="#DejaVuSans-63"/>
      <use x="245.808594" xlink:href="#DejaVuSans-69"/>
      <use x="273.591797" xlink:href="#DejaVuSans-70"/>
      <use x="337.068359" xlink:href="#DejaVuSans-61"/>
      <use x="398.347656" xlink:href="#DejaVuSans-6c"/>
      <use x="426.130859" xlink:href="#DejaVuSans-20"/>
      <use x="457.917969" xlink:href="#DejaVuSans-43"/>
      <use x="527.742188" xlink:href="#DejaVuSans-6f"/>
      <use x="588.923828" xlink:href="#DejaVuSans-6d"/>
      <use x="686.335938" xlink:href="#DejaVuSans-70"/>
      <use x="749.8125" xlink:href="#DejaVuSans-6f"/>
      <use x="810.994141" xlink:href="#DejaVuSans-6e"/>
      <use x="874.373047" xlink:href="#DejaVuSans-65"/>
      <use x="935.896484" xlink:href="#DejaVuSans-6e"/>
      <use x="999.275391" xlink:href="#DejaVuSans-74"/>
      <use x="1038.484375" xlink:href="#DejaVuSans-20"/>
      <use x="1070.271484" xlink:href="#DejaVuSans-31"/>
     </g>
    </g>
   </g>
   <g id="matplotlib.axis_2">
    <g id="ytick_1">
     <g id="line2d_6">
      <path clip-path="url(#pc7538331e0)" d="M 55.428906 382.704243 
L 613.428906 382.704243 
" style="fill:none;stroke:#ffffff;stroke-linecap:round;"/>
     </g>
     <g id="text_7">
      <!-- −20 -->
      <g style="fill:#262626;" transform="translate(19.21375 386.883383)scale(0.11 -0.11)">
       <defs>
        <path d="M 678 2272 
L 4684 2272 
L 4684 1741 
L 678 1741 
L 678 2272 
z
" id="DejaVuSans-2212" transform="scale(0.015625)"/>
       </defs>
       <use xlink:href="#DejaVuSans-2212"/>
       <use x="83.789062" xlink:href="#DejaVuSans-32"/>
       <use x="147.412109" xlink:href="#DejaVuSans-30"/>
      </g>
     </g>
    </g>
    <g id="ytick_2">
     <g id="line2d_7">
      <path clip-path="url(#pc7538331e0)" d="M 55.428906 295.497429 
L 613.428906 295.497429 
" style="fill:none;stroke:#ffffff;stroke-linecap:round;"/>
     </g>
     <g id="text_8">
      <!-- 0 -->
      <g style="fill:#262626;" transform="translate(35.430156 299.67657)scale(0.11 -0.11)">
       <use xlink:href="#DejaVuSans-30"/>
      </g>
     </g>
    </g>
    <g id="ytick_3">
     <g id="line2d_8">
      <path clip-path="url(#pc7538331e0)" d="M 55.428906 208.290616 
L 613.428906 208.290616 
" style="fill:none;stroke:#ffffff;stroke-linecap:round;"/>
     </g>
     <g id="text_9">
      <!-- 20 -->
      <g style="fill:#262626;" transform="translate(28.431406 212.469756)scale(0.11 -0.11)">
       <use xlink:href="#DejaVuSans-32"/>
       <use x="63.623047" xlink:href="#DejaVuSans-30"/>
      </g>
     </g>
    </g>
    <g id="ytick_4">
     <g id="line2d_9">
      <path clip-path="url(#pc7538331e0)" d="M 55.428906 121.083802 
L 613.428906 121.083802 
" style="fill:none;stroke:#ffffff;stroke-linecap:round;"/>
     </g>
     <g id="text_10">
      <!-- 40 -->
      <g style="fill:#262626;" transform="translate(28.431406 125.262943)scale(0.11 -0.11)">
       <defs>
        <path d="M 2419 4116 
L 825 1625 
L 2419 1625 
L 2419 4116 
z
M 2253 4666 
L 3047 4666 
L 3047 1625 
L 3713 1625 
L 3713 1100 
L 3047 1100 
L 3047 0 
L 2419 0 
L 2419 1100 
L 313 1100 
L 313 1709 
L 2253 4666 
z
" id="DejaVuSans-34" transform="scale(0.015625)"/>
       </defs>
       <use xlink:href="#DejaVuSans-34"/>
       <use x="63.623047" xlink:href="#DejaVuSans-30"/>
      </g>
     </g>
    </g>
    <g id="ytick_5">
     <g id="line2d_10">
      <path clip-path="url(#pc7538331e0)" d="M 55.428906 33.876988 
L 613.428906 33.876988 
" style="fill:none;stroke:#ffffff;stroke-linecap:round;"/>
     </g>
     <g id="text_11">
      <!-- 60 -->
      <g style="fill:#262626;" transform="translate(28.431406 38.056129)scale(0.11 -0.11)">
       <defs>
        <path d="M 2113 2584 
Q 1688 2584 1439 2293 
Q 1191 2003 1191 1497 
Q 1191 994 1439 701 
Q 1688 409 2113 409 
Q 2538 409 2786 701 
Q 3034 994 3034 1497 
Q 3034 2003 2786 2293 
Q 2538 2584 2113 2584 
z
M 3366 4563 
L 3366 3988 
Q 3128 4100 2886 4159 
Q 2644 4219 2406 4219 
Q 1781 4219 1451 3797 
Q 1122 3375 1075 2522 
Q 1259 2794 1537 2939 
Q 1816 3084 2150 3084 
Q 2853 3084 3261 2657 
Q 3669 2231 3669 1497 
Q 3669 778 3244 343 
Q 2819 -91 2113 -91 
Q 1303 -91 875 529 
Q 447 1150 447 2328 
Q 447 3434 972 4092 
Q 1497 4750 2381 4750 
Q 2619 4750 2861 4703 
Q 3103 4656 3366 4563 
z
" id="DejaVuSans-36" transform="scale(0.015625)"/>
       </defs>
       <use xlink:href="#DejaVuSans-36"/>
       <use x="63.623047" xlink:href="#DejaVuSans-30"/>
      </g>
     </g>
    </g>
    <g id="text_12">
     <!-- Principal Component 2 -->
     <g style="fill:#262626;" transform="translate(12.718125 308.511562)rotate(-90)scale(0.12 -0.12)">
      <use xlink:href="#DejaVuSans-50"/>
      <use x="58.552734" xlink:href="#DejaVuSans-72"/>
      <use x="99.666016" xlink:href="#DejaVuSans-69"/>
      <use x="127.449219" xlink:href="#DejaVuSans-6e"/>
      <use x="190.828125" xlink:href="#DejaVuSans-63"/>
      <use x="245.808594" xlink:href="#DejaVuSans-69"/>
      <use x="273.591797" xlink:href="#DejaVuSans-70"/>
      <use x="337.068359" xlink:href="#DejaVuSans-61"/>
      <use x="398.347656" xlink:href="#DejaVuSans-6c"/>
      <use x="426.130859" xlink:href="#DejaVuSans-20"/>
      <use x="457.917969" xlink:href="#DejaVuSans-43"/>
      <use x="527.742188" xlink:href="#DejaVuSans-6f"/>
      <use x="588.923828" xlink:href="#DejaVuSans-6d"/>
      <use x="686.335938" xlink:href="#DejaVuSans-70"/>
      <use x="749.8125" xlink:href="#DejaVuSans-6f"/>
      <use x="810.994141" xlink:href="#DejaVuSans-6e"/>
      <use x="874.373047" xlink:href="#DejaVuSans-65"/>
      <use x="935.896484" xlink:href="#DejaVuSans-6e"/>
      <use x="999.275391" xlink:href="#DejaVuSans-74"/>
      <use x="1038.484375" xlink:href="#DejaVuSans-20"/>
      <use x="1070.271484" xlink:href="#DejaVuSans-32"/>
     </g>
    </g>
   </g>
   <g id="PathCollection_1">
    <defs>
     <path d="M 0 3.535534 
C 0.937635 3.535534 1.836992 3.163008 2.5 2.5 
C 3.163008 1.836992 3.535534 0.937635 3.535534 0 
C 3.535534 -0.937635 3.163008 -1.836992 2.5 -2.5 
C 1.836992 -3.163008 0.937635 -3.535534 0 -3.535534 
C -0.937635 -3.535534 -1.836992 -3.163008 -2.5 -2.5 
C -3.163008 -1.836992 -3.535534 -0.937635 -3.535534 0 
C -3.535534 0.937635 -3.163008 1.836992 -2.5 2.5 
C -1.836992 3.163008 -0.937635 3.535534 0 3.535534 
z
" id="m1cd8413b7b" style="stroke:#ffa500;"/>
    </defs>
    <g clip-path="url(#pc7538331e0)">
     <use style="fill:#ffa500;stroke:#ffa500;" x="97.731864" xlink:href="#m1cd8413b7b" y="403.320754"/>
     <use style="fill:#ffa500;stroke:#ffa500;" x="97.268525" xlink:href="#m1cd8413b7b" y="403.902479"/>
     <use style="fill:#ffa500;stroke:#ffa500;" x="94.446041" xlink:href="#m1cd8413b7b" y="412.095575"/>
     <use style="fill:#ffa500;stroke:#ffa500;" x="92.541713" xlink:href="#m1cd8413b7b" y="410.053363"/>
     <use style="fill:#ffa500;stroke:#ffa500;" x="95.423959" xlink:href="#m1cd8413b7b" y="406.37302"/>
     <use style="fill:#ffa500;stroke:#ffa500;" x="96.3463" xlink:href="#m1cd8413b7b" y="409.807042"/>
     <use style="fill:#ffa500;stroke:#ffa500;" x="104.040083" xlink:href="#m1cd8413b7b" y="403.377858"/>
     <use style="fill:#ffa500;stroke:#ffa500;" x="105.731415" xlink:href="#m1cd8413b7b" y="402.790546"/>
     <use style="fill:#ffa500;stroke:#ffa500;" x="100.219486" xlink:href="#m1cd8413b7b" y="397.805814"/>
     <use style="fill:#ffa500;stroke:#ffa500;" x="100.264309" xlink:href="#m1cd8413b7b" y="398.776023"/>
     <use style="fill:#ffa500;stroke:#ffa500;" x="97.137557" xlink:href="#m1cd8413b7b" y="400.748986"/>
     <use style="fill:#ffa500;stroke:#ffa500;" x="97.617052" xlink:href="#m1cd8413b7b" y="403.575681"/>
     <use style="fill:#ffa500;stroke:#ffa500;" x="102.103317" xlink:href="#m1cd8413b7b" y="399.551782"/>
     <use style="fill:#ffa500;stroke:#ffa500;" x="101.376044" xlink:href="#m1cd8413b7b" y="403.131938"/>
     <use style="fill:#ffa500;stroke:#ffa500;" x="94.463319" xlink:href="#m1cd8413b7b" y="398.781499"/>
     <use style="fill:#ffa500;stroke:#ffa500;" x="93.236168" xlink:href="#m1cd8413b7b" y="397.772565"/>
     <use style="fill:#ffa500;stroke:#ffa500;" x="94.666262" xlink:href="#m1cd8413b7b" y="399.579216"/>
     <use style="fill:#ffa500;stroke:#ffa500;" x="95.0527" xlink:href="#m1cd8413b7b" y="397.856628"/>
     <use style="fill:#ffa500;stroke:#ffa500;" x="108.018746" xlink:href="#m1cd8413b7b" y="405.07536"/>
     <use style="fill:#ffa500;stroke:#ffa500;" x="107.255155" xlink:href="#m1cd8413b7b" y="405.617251"/>
     <use style="fill:#ffa500;stroke:#ffa500;" x="107.461481" xlink:href="#m1cd8413b7b" y="400.773819"/>
     <use style="fill:#ffa500;stroke:#ffa500;" x="107.615215" xlink:href="#m1cd8413b7b" y="400.642129"/>
     <use style="fill:#ffa500;stroke:#ffa500;" x="98.962622" xlink:href="#m1cd8413b7b" y="395.950138"/>
     <use style="fill:#ffa500;stroke:#ffa500;" x="96.65786" xlink:href="#m1cd8413b7b" y="394.581336"/>
     <use style="fill:#ffa500;stroke:#ffa500;" x="112.14906" xlink:href="#m1cd8413b7b" y="395.928569"/>
     <use style="fill:#ffa500;stroke:#ffa500;" x="110.803847" xlink:href="#m1cd8413b7b" y="396.517406"/>
     <use style="fill:#ffa500;stroke:#ffa500;" x="92.050497" xlink:href="#m1cd8413b7b" y="408.39619"/>
     <use style="fill:#ffa500;stroke:#ffa500;" x="91.702174" xlink:href="#m1cd8413b7b" y="408.267088"/>
     <use style="fill:#ffa500;stroke:#ffa500;" x="96.269073" xlink:href="#m1cd8413b7b" y="413.014619"/>
     <use style="fill:#ffa500;stroke:#ffa500;" x="95.02961" xlink:href="#m1cd8413b7b" y="413.13571"/>
    </g>
   </g>
   <g id="PathCollection_2">
    <defs>
     <path d="M 0 3.535534 
C 0.937635 3.535534 1.836992 3.163008 2.5 2.5 
C 3.163008 1.836992 3.535534 0.937635 3.535534 0 
C 3.535534 -0.937635 3.163008 -1.836992 2.5 -2.5 
C 1.836992 -3.163008 0.937635 -3.535534 0 -3.535534 
C -0.937635 -3.535534 -1.836992 -3.163008 -2.5 -2.5 
C -3.163008 -1.836992 -3.535534 -0.937635 -3.535534 0 
C -3.535534 0.937635 -3.163008 1.836992 -2.5 2.5 
C -1.836992 3.163008 -0.937635 3.535534 0 3.535534 
z
" id="m975caaca5e" style="stroke:#008000;"/>
    </defs>
    <g clip-path="url(#pc7538331e0)">
     <use style="fill:#008000;stroke:#008000;" x="430.068728" xlink:href="#m975caaca5e" y="234.08825"/>
     <use style="fill:#008000;stroke:#008000;" x="446.831436" xlink:href="#m975caaca5e" y="218.240999"/>
     <use style="fill:#008000;stroke:#008000;" x="445.96478" xlink:href="#m975caaca5e" y="222.32111"/>
     <use style="fill:#008000;stroke:#008000;" x="454.261954" xlink:href="#m975caaca5e" y="216.900814"/>
     <use style="fill:#008000;stroke:#008000;" x="485.01022" xlink:href="#m975caaca5e" y="191.565961"/>
     <use style="fill:#008000;stroke:#008000;" x="502.769518" xlink:href="#m975caaca5e" y="179.266506"/>
     <use style="fill:#008000;stroke:#008000;" x="510.675312" xlink:href="#m975caaca5e" y="153.069514"/>
     <use style="fill:#008000;stroke:#008000;" x="588.06527" xlink:href="#m975caaca5e" y="106.170979"/>
     <use style="fill:#008000;stroke:#008000;" x="478.489026" xlink:href="#m975caaca5e" y="168.832259"/>
     <use style="fill:#008000;stroke:#008000;" x="467.293658" xlink:href="#m975caaca5e" y="179.108025"/>
     <use style="fill:#008000;stroke:#008000;" x="436.194121" xlink:href="#m975caaca5e" y="221.065454"/>
     <use style="fill:#008000;stroke:#008000;" x="446.099827" xlink:href="#m975caaca5e" y="214.750828"/>
    </g>
   </g>
   <g id="PathCollection_3">
    <defs>
     <path d="M 0 3.535534 
C 0.937635 3.535534 1.836992 3.163008 2.5 2.5 
C 3.163008 1.836992 3.535534 0.937635 3.535534 0 
C 3.535534 -0.937635 3.163008 -1.836992 2.5 -2.5 
C 1.836992 -3.163008 0.937635 -3.535534 0 -3.535534 
C -0.937635 -3.535534 -1.836992 -3.163008 -2.5 -2.5 
C -3.163008 -1.836992 -3.535534 -0.937635 -3.535534 0 
C -3.535534 0.937635 -3.163008 1.836992 -2.5 2.5 
C -1.836992 3.163008 -0.937635 3.535534 0 3.535534 
z
" id="m16de7e9abf" style="stroke:#ff0000;"/>
    </defs>
    <g clip-path="url(#pc7538331e0)">
     <use style="fill:#ff0000;stroke:#ff0000;" x="85.256211" xlink:href="#m16de7e9abf" y="78.15684"/>
     <use style="fill:#ff0000;stroke:#ff0000;" x="84.057849" xlink:href="#m16de7e9abf" y="71.164846"/>
     <use style="fill:#ff0000;stroke:#ff0000;" x="84.226254" xlink:href="#m16de7e9abf" y="85.766743"/>
     <use style="fill:#ff0000;stroke:#ff0000;" x="85.589162" xlink:href="#m16de7e9abf" y="87.245966"/>
     <use style="fill:#ff0000;stroke:#ff0000;" x="89.950073" xlink:href="#m16de7e9abf" y="130.189835"/>
     <use style="fill:#ff0000;stroke:#ff0000;" x="90.382222" xlink:href="#m16de7e9abf" y="127.745352"/>
     <use style="fill:#ff0000;stroke:#ff0000;" x="107.294942" xlink:href="#m16de7e9abf" y="147.372189"/>
     <use style="fill:#ff0000;stroke:#ff0000;" x="107.621735" xlink:href="#m16de7e9abf" y="144.963213"/>
     <use style="fill:#ff0000;stroke:#ff0000;" x="93.758609" xlink:href="#m16de7e9abf" y="112.359394"/>
     <use style="fill:#ff0000;stroke:#ff0000;" x="94.427603" xlink:href="#m16de7e9abf" y="119.058698"/>
     <use style="fill:#ff0000;stroke:#ff0000;" x="89.617781" xlink:href="#m16de7e9abf" y="141.866272"/>
     <use style="fill:#ff0000;stroke:#ff0000;" x="87.275997" xlink:href="#m16de7e9abf" y="137.883996"/>
     <use style="fill:#ff0000;stroke:#ff0000;" x="90.528887" xlink:href="#m16de7e9abf" y="119.000597"/>
     <use style="fill:#ff0000;stroke:#ff0000;" x="89.946762" xlink:href="#m16de7e9abf" y="118.231457"/>
     <use style="fill:#ff0000;stroke:#ff0000;" x="96.894351" xlink:href="#m16de7e9abf" y="176.562608"/>
     <use style="fill:#ff0000;stroke:#ff0000;" x="98.874071" xlink:href="#m16de7e9abf" y="182.406596"/>
     <use style="fill:#ff0000;stroke:#ff0000;" x="102.860634" xlink:href="#m16de7e9abf" y="187.618072"/>
     <use style="fill:#ff0000;stroke:#ff0000;" x="101.964284" xlink:href="#m16de7e9abf" y="191.345308"/>
     <use style="fill:#ff0000;stroke:#ff0000;" x="87.81751" xlink:href="#m16de7e9abf" y="89.555642"/>
     <use style="fill:#ff0000;stroke:#ff0000;" x="85.76382" xlink:href="#m16de7e9abf" y="91.208284"/>
     <use style="fill:#ff0000;stroke:#ff0000;" x="102.639452" xlink:href="#m16de7e9abf" y="81.497479"/>
     <use style="fill:#ff0000;stroke:#ff0000;" x="98.883255" xlink:href="#m16de7e9abf" y="70.070927"/>
     <use style="fill:#ff0000;stroke:#ff0000;" x="87.670418" xlink:href="#m16de7e9abf" y="126.765169"/>
     <use style="fill:#ff0000;stroke:#ff0000;" x="88.240248" xlink:href="#m16de7e9abf" y="124.942443"/>
     <use style="fill:#ff0000;stroke:#ff0000;" x="82.842161" xlink:href="#m16de7e9abf" y="105.27323"/>
     <use style="fill:#ff0000;stroke:#ff0000;" x="81.989606" xlink:href="#m16de7e9abf" y="103.826571"/>
     <use style="fill:#ff0000;stroke:#ff0000;" x="84.75721" xlink:href="#m16de7e9abf" y="121.165408"/>
     <use style="fill:#ff0000;stroke:#ff0000;" x="85.985482" xlink:href="#m16de7e9abf" y="126.565222"/>
     <use style="fill:#ff0000;stroke:#ff0000;" x="82.899818" xlink:href="#m16de7e9abf" y="104.405914"/>
     <use style="fill:#ff0000;stroke:#ff0000;" x="82.191972" xlink:href="#m16de7e9abf" y="111.465653"/>
     <use style="fill:#ff0000;stroke:#ff0000;" x="86.328977" xlink:href="#m16de7e9abf" y="117.963124"/>
     <use style="fill:#ff0000;stroke:#ff0000;" x="85.46035" xlink:href="#m16de7e9abf" y="123.088194"/>
     <use style="fill:#ff0000;stroke:#ff0000;" x="83.541716" xlink:href="#m16de7e9abf" y="113.324585"/>
     <use style="fill:#ff0000;stroke:#ff0000;" x="83.283276" xlink:href="#m16de7e9abf" y="113.069857"/>
     <use style="fill:#ff0000;stroke:#ff0000;" x="87.96312" xlink:href="#m16de7e9abf" y="126.323159"/>
     <use style="fill:#ff0000;stroke:#ff0000;" x="87.741024" xlink:href="#m16de7e9abf" y="128.680816"/>
     <use style="fill:#ff0000;stroke:#ff0000;" x="83.97002" xlink:href="#m16de7e9abf" y="129.595513"/>
     <use style="fill:#ff0000;stroke:#ff0000;" x="81.314043" xlink:href="#m16de7e9abf" y="127.573054"/>
     <use style="fill:#ff0000;stroke:#ff0000;" x="108.260696" xlink:href="#m16de7e9abf" y="92.150452"/>
     <use style="fill:#ff0000;stroke:#ff0000;" x="108.783821" xlink:href="#m16de7e9abf" y="96.643304"/>
     <use style="fill:#ff0000;stroke:#ff0000;" x="109.428215" xlink:href="#m16de7e9abf" y="135.352886"/>
     <use style="fill:#ff0000;stroke:#ff0000;" x="108.779395" xlink:href="#m16de7e9abf" y="140.607081"/>
     <use style="fill:#ff0000;stroke:#ff0000;" x="84.118901" xlink:href="#m16de7e9abf" y="64.295578"/>
     <use style="fill:#ff0000;stroke:#ff0000;" x="85.422359" xlink:href="#m16de7e9abf" y="68.785906"/>
     <use style="fill:#ff0000;stroke:#ff0000;" x="110.090959" xlink:href="#m16de7e9abf" y="90.438986"/>
     <use style="fill:#ff0000;stroke:#ff0000;" x="111.129703" xlink:href="#m16de7e9abf" y="95.406608"/>
     <use style="fill:#ff0000;stroke:#ff0000;" x="84.339455" xlink:href="#m16de7e9abf" y="41.15548"/>
     <use style="fill:#ff0000;stroke:#ff0000;" x="82.200778" xlink:href="#m16de7e9abf" y="38.878125"/>
     <use style="fill:#ff0000;stroke:#ff0000;" x="85.262359" xlink:href="#m16de7e9abf" y="106.209221"/>
     <use style="fill:#ff0000;stroke:#ff0000;" x="87.437954" xlink:href="#m16de7e9abf" y="106.42951"/>
     <use style="fill:#ff0000;stroke:#ff0000;" x="107.515456" xlink:href="#m16de7e9abf" y="77.080748"/>
     <use style="fill:#ff0000;stroke:#ff0000;" x="109.789263" xlink:href="#m16de7e9abf" y="77.837328"/>
     <use style="fill:#ff0000;stroke:#ff0000;" x="92.975506" xlink:href="#m16de7e9abf" y="51.170384"/>
     <use style="fill:#ff0000;stroke:#ff0000;" x="92.24312" xlink:href="#m16de7e9abf" y="55.370707"/>
     <use style="fill:#ff0000;stroke:#ff0000;" x="81.23895" xlink:href="#m16de7e9abf" y="55.107918"/>
     <use style="fill:#ff0000;stroke:#ff0000;" x="81.808513" xlink:href="#m16de7e9abf" y="59.290093"/>
     <use style="fill:#ff0000;stroke:#ff0000;" x="80.792543" xlink:href="#m16de7e9abf" y="56.010053"/>
     <use style="fill:#ff0000;stroke:#ff0000;" x="82.017298" xlink:href="#m16de7e9abf" y="53.410543"/>
     <use style="fill:#ff0000;stroke:#ff0000;" x="81.364187" xlink:href="#m16de7e9abf" y="89.660312"/>
     <use style="fill:#ff0000;stroke:#ff0000;" x="83.045685" xlink:href="#m16de7e9abf" y="93.790307"/>
    </g>
   </g>
   <g id="PathCollection_4">
    <defs>
     <path d="M 0 3.535534 
C 0.937635 3.535534 1.836992 3.163008 2.5 2.5 
C 3.163008 1.836992 3.535534 0.937635 3.535534 0 
C 3.535534 -0.937635 3.163008 -1.836992 2.5 -2.5 
C 1.836992 -3.163008 0.937635 -3.535534 0 -3.535534 
C -0.937635 -3.535534 -1.836992 -3.163008 -2.5 -2.5 
C -3.163008 -1.836992 -3.535534 -0.937635 -3.535534 0 
C -3.535534 0.937635 -3.163008 1.836992 -2.5 2.5 
C -1.836992 3.163008 -0.937635 3.535534 0 3.535534 
z
" id="m8e78062cc3" style="stroke:#0000ff;"/>
    </defs>
    <g clip-path="url(#pc7538331e0)">
     <use style="fill:#0000ff;stroke:#0000ff;" x="161.054085" xlink:href="#m8e78062cc3" y="426.230204"/>
     <use style="fill:#0000ff;stroke:#0000ff;" x="148.042139" xlink:href="#m8e78062cc3" y="425.024573"/>
     <use style="fill:#0000ff;stroke:#0000ff;" x="155.82116" xlink:href="#m8e78062cc3" y="437.288125"/>
     <use style="fill:#0000ff;stroke:#0000ff;" x="156.263134" xlink:href="#m8e78062cc3" y="434.662975"/>
     <use style="fill:#0000ff;stroke:#0000ff;" x="159.476063" xlink:href="#m8e78062cc3" y="421.138184"/>
     <use style="fill:#0000ff;stroke:#0000ff;" x="160.369566" xlink:href="#m8e78062cc3" y="428.269953"/>
     <use style="fill:#0000ff;stroke:#0000ff;" x="159.014974" xlink:href="#m8e78062cc3" y="422.657461"/>
     <use style="fill:#0000ff;stroke:#0000ff;" x="156.554049" xlink:href="#m8e78062cc3" y="424.073756"/>
     <use style="fill:#0000ff;stroke:#0000ff;" x="148.901362" xlink:href="#m8e78062cc3" y="433.011667"/>
     <use style="fill:#0000ff;stroke:#0000ff;" x="145.687805" xlink:href="#m8e78062cc3" y="430.998596"/>
     <use style="fill:#0000ff;stroke:#0000ff;" x="151.227834" xlink:href="#m8e78062cc3" y="430.987181"/>
     <use style="fill:#0000ff;stroke:#0000ff;" x="149.571561" xlink:href="#m8e78062cc3" y="435.873252"/>
     <use style="fill:#0000ff;stroke:#0000ff;" x="135.260547" xlink:href="#m8e78062cc3" y="429.196913"/>
     <use style="fill:#0000ff;stroke:#0000ff;" x="148.707891" xlink:href="#m8e78062cc3" y="422.385547"/>
     <use style="fill:#0000ff;stroke:#0000ff;" x="147.218568" xlink:href="#m8e78062cc3" y="432.374273"/>
     <use style="fill:#0000ff;stroke:#0000ff;" x="146.56009" xlink:href="#m8e78062cc3" y="429.79307"/>
     <use style="fill:#0000ff;stroke:#0000ff;" x="150.757263" xlink:href="#m8e78062cc3" y="430.749865"/>
     <use style="fill:#0000ff;stroke:#0000ff;" x="149.819021" xlink:href="#m8e78062cc3" y="428.114453"/>
     <use style="fill:#0000ff;stroke:#0000ff;" x="139.168795" xlink:href="#m8e78062cc3" y="435.162026"/>
     <use style="fill:#0000ff;stroke:#0000ff;" x="124.221188" xlink:href="#m8e78062cc3" y="433.289316"/>
     <use style="fill:#0000ff;stroke:#0000ff;" x="251.715562" xlink:href="#m8e78062cc3" y="355.103492"/>
     <use style="fill:#0000ff;stroke:#0000ff;" x="250.691066" xlink:href="#m8e78062cc3" y="365.601262"/>
     <use style="fill:#0000ff;stroke:#0000ff;" x="128.268706" xlink:href="#m8e78062cc3" y="435.409193"/>
     <use style="fill:#0000ff;stroke:#0000ff;" x="139.572843" xlink:href="#m8e78062cc3" y="435.215294"/>
     <use style="fill:#0000ff;stroke:#0000ff;" x="151.737547" xlink:href="#m8e78062cc3" y="419.486249"/>
     <use style="fill:#0000ff;stroke:#0000ff;" x="151.713439" xlink:href="#m8e78062cc3" y="416.247942"/>
     <use style="fill:#0000ff;stroke:#0000ff;" x="155.663247" xlink:href="#m8e78062cc3" y="430.26454"/>
     <use style="fill:#0000ff;stroke:#0000ff;" x="155.847387" xlink:href="#m8e78062cc3" y="427.910923"/>
     <use style="fill:#0000ff;stroke:#0000ff;" x="170.199001" xlink:href="#m8e78062cc3" y="415.506473"/>
     <use style="fill:#0000ff;stroke:#0000ff;" x="166.439944" xlink:href="#m8e78062cc3" y="418.245207"/>
     <use style="fill:#0000ff;stroke:#0000ff;" x="162.340412" xlink:href="#m8e78062cc3" y="412.69758"/>
     <use style="fill:#0000ff;stroke:#0000ff;" x="160.574207" xlink:href="#m8e78062cc3" y="412.311372"/>
     <use style="fill:#0000ff;stroke:#0000ff;" x="231.004888" xlink:href="#m8e78062cc3" y="382.797047"/>
     <use style="fill:#0000ff;stroke:#0000ff;" x="226.349417" xlink:href="#m8e78062cc3" y="386.352254"/>
     <use style="fill:#0000ff;stroke:#0000ff;" x="186.312814" xlink:href="#m8e78062cc3" y="416.685384"/>
     <use style="fill:#0000ff;stroke:#0000ff;" x="186.519717" xlink:href="#m8e78062cc3" y="417.848409"/>
     <use style="fill:#0000ff;stroke:#0000ff;" x="154.030561" xlink:href="#m8e78062cc3" y="442.078125"/>
     <use style="fill:#0000ff;stroke:#0000ff;" x="152.673847" xlink:href="#m8e78062cc3" y="441.001933"/>
     <use style="fill:#0000ff;stroke:#0000ff;" x="165.694093" xlink:href="#m8e78062cc3" y="413.660762"/>
     <use style="fill:#0000ff;stroke:#0000ff;" x="164.334126" xlink:href="#m8e78062cc3" y="412.903797"/>
     <use style="fill:#0000ff;stroke:#0000ff;" x="178.806064" xlink:href="#m8e78062cc3" y="420.889079"/>
     <use style="fill:#0000ff;stroke:#0000ff;" x="180.943194" xlink:href="#m8e78062cc3" y="415.556283"/>
     <use style="fill:#0000ff;stroke:#0000ff;" x="163.948867" xlink:href="#m8e78062cc3" y="433.348959"/>
     <use style="fill:#0000ff;stroke:#0000ff;" x="162.023616" xlink:href="#m8e78062cc3" y="430.471767"/>
     <use style="fill:#0000ff;stroke:#0000ff;" x="168.000066" xlink:href="#m8e78062cc3" y="411.060014"/>
     <use style="fill:#0000ff;stroke:#0000ff;" x="166.975843" xlink:href="#m8e78062cc3" y="409.951286"/>
     <use style="fill:#0000ff;stroke:#0000ff;" x="197.229807" xlink:href="#m8e78062cc3" y="417.863837"/>
     <use style="fill:#0000ff;stroke:#0000ff;" x="194.91405" xlink:href="#m8e78062cc3" y="421.635682"/>
    </g>
   </g>
   <g id="PathCollection_5">
    <defs>
     <path d="M 0 3.535534 
C 0.937635 3.535534 1.836992 3.163008 2.5 2.5 
C 3.163008 1.836992 3.535534 0.937635 3.535534 0 
C 3.535534 -0.937635 3.163008 -1.836992 2.5 -2.5 
C 1.836992 -3.163008 0.937635 -3.535534 0 -3.535534 
C -0.937635 -3.535534 -1.836992 -3.163008 -2.5 -2.5 
C -3.163008 -1.836992 -3.535534 -0.937635 -3.535534 0 
C -3.535534 0.937635 -3.163008 1.836992 -2.5 2.5 
C -1.836992 3.163008 -0.937635 3.535534 0 3.535534 
z
" id="m1ea502233a" style="stroke:#000000;"/>
    </defs>
    <g clip-path="url(#pc7538331e0)">
     <use style="stroke:#000000;" x="100.297792" xlink:href="#m1ea502233a" y="404.001421"/>
     <use style="stroke:#000000;" x="102.320541" xlink:href="#m1ea502233a" y="405.342733"/>
     <use style="stroke:#000000;" x="105.566449" xlink:href="#m1ea502233a" y="400.959457"/>
     <use style="stroke:#000000;" x="104.138298" xlink:href="#m1ea502233a" y="404.474303"/>
     <use style="stroke:#000000;" x="106.384857" xlink:href="#m1ea502233a" y="411.59054"/>
     <use style="stroke:#000000;" x="105.383211" xlink:href="#m1ea502233a" y="414.530395"/>
     <use style="stroke:#000000;" x="101.458735" xlink:href="#m1ea502233a" y="406.451666"/>
     <use style="stroke:#000000;" x="103.595183" xlink:href="#m1ea502233a" y="404.761361"/>
     <use style="stroke:#000000;" x="98.365912" xlink:href="#m1ea502233a" y="412.568919"/>
     <use style="stroke:#000000;" x="98.366396" xlink:href="#m1ea502233a" y="409.935178"/>
     <use style="stroke:#000000;" x="103.387395" xlink:href="#m1ea502233a" y="408.519065"/>
     <use style="stroke:#000000;" x="104.788657" xlink:href="#m1ea502233a" y="406.412756"/>
     <use style="stroke:#000000;" x="104.592129" xlink:href="#m1ea502233a" y="405.436675"/>
     <use style="stroke:#000000;" x="105.366328" xlink:href="#m1ea502233a" y="407.44713"/>
     <use style="stroke:#000000;" x="99.63258" xlink:href="#m1ea502233a" y="404.611454"/>
     <use style="stroke:#000000;" x="98.849837" xlink:href="#m1ea502233a" y="408.405218"/>
     <use style="stroke:#000000;" x="97.37523" xlink:href="#m1ea502233a" y="414.052597"/>
     <use style="stroke:#000000;" x="97.395998" xlink:href="#m1ea502233a" y="412.050527"/>
     <use style="stroke:#000000;" x="115.661674" xlink:href="#m1ea502233a" y="396.212065"/>
     <use style="stroke:#000000;" x="115.522964" xlink:href="#m1ea502233a" y="392.76039"/>
     <use style="stroke:#000000;" x="97.495811" xlink:href="#m1ea502233a" y="414.372439"/>
     <use style="stroke:#000000;" x="97.606066" xlink:href="#m1ea502233a" y="416.357029"/>
     <use style="stroke:#000000;" x="95.350646" xlink:href="#m1ea502233a" y="412.909767"/>
     <use style="stroke:#000000;" x="95.474718" xlink:href="#m1ea502233a" y="414.341216"/>
     <use style="stroke:#000000;" x="98.801277" xlink:href="#m1ea502233a" y="413.32816"/>
     <use style="stroke:#000000;" x="100.465225" xlink:href="#m1ea502233a" y="415.476371"/>
     <use style="stroke:#000000;" x="97.488256" xlink:href="#m1ea502233a" y="409.608559"/>
     <use style="stroke:#000000;" x="100.474221" xlink:href="#m1ea502233a" y="410.898154"/>
     <use style="stroke:#000000;" x="102.076862" xlink:href="#m1ea502233a" y="405.522377"/>
     <use style="stroke:#000000;" x="101.232533" xlink:href="#m1ea502233a" y="403.852938"/>
    </g>
   </g>
   <g id="PathCollection_6">
    <defs>
     <path d="M -5 5 
L 5 -5 
M -5 -5 
L 5 5 
" id="m02c1808ebd" style="stroke:#000000;stroke-width:1.5;"/>
    </defs>
    <g clip-path="url(#pc7538331e0)">
     <use style="stroke:#000000;stroke-width:1.5;" x="99.454715" xlink:href="#m02c1808ebd" y="402.90668"/>
     <use style="stroke:#000000;stroke-width:1.5;" x="474.310321" xlink:href="#m02c1808ebd" y="192.115058"/>
     <use style="stroke:#000000;stroke-width:1.5;" x="91.164267" xlink:href="#m02c1808ebd" y="105.672996"/>
     <use style="stroke:#000000;stroke-width:1.5;" x="164.962946" xlink:href="#m02c1808ebd" y="421.028865"/>
     <use style="stroke:#000000;stroke-width:1.5;" x="101.830526" xlink:href="#m02c1808ebd" y="408.239695"/>
    </g>
   </g>
   <g id="patch_3">
    <path d="M 55.428906 462.238125 
L 55.428906 18.718125 
" style="fill:none;stroke:#ffffff;stroke-linecap:square;stroke-linejoin:miter;stroke-width:1.25;"/>
   </g>
   <g id="patch_4">
    <path d="M 613.428906 462.238125 
L 613.428906 18.718125 
" style="fill:none;stroke:#ffffff;stroke-linecap:square;stroke-linejoin:miter;stroke-width:1.25;"/>
   </g>
   <g id="patch_5">
    <path d="M 55.428906 462.238125 
L 613.428906 462.238125 
" style="fill:none;stroke:#ffffff;stroke-linecap:square;stroke-linejoin:miter;stroke-width:1.25;"/>
   </g>
   <g id="patch_6">
    <path d="M 55.428906 18.718125 
L 613.428906 18.718125 
" style="fill:none;stroke:#ffffff;stroke-linecap:square;stroke-linejoin:miter;stroke-width:1.25;"/>
   </g>
   <g id="text_13">
    <!-- 2D PCA of KMeans Clustering -->
    <g style="fill:#262626;" transform="translate(246.686406 12.718125)scale(0.12 -0.12)">
     <defs>
      <path d="M 1259 4147 
L 1259 519 
L 2022 519 
Q 2988 519 3436 956 
Q 3884 1394 3884 2338 
Q 3884 3275 3436 3711 
Q 2988 4147 2022 4147 
L 1259 4147 
z
M 628 4666 
L 1925 4666 
Q 3281 4666 3915 4102 
Q 4550 3538 4550 2338 
Q 4550 1131 3912 565 
Q 3275 0 1925 0 
L 628 0 
L 628 4666 
z
" id="DejaVuSans-44" transform="scale(0.015625)"/>
      <path d="M 2188 4044 
L 1331 1722 
L 3047 1722 
L 2188 4044 
z
M 1831 4666 
L 2547 4666 
L 4325 0 
L 3669 0 
L 3244 1197 
L 1141 1197 
L 716 0 
L 50 0 
L 1831 4666 
z
" id="DejaVuSans-41" transform="scale(0.015625)"/>
      <path d="M 2375 4863 
L 2375 4384 
L 1825 4384 
Q 1516 4384 1395 4259 
Q 1275 4134 1275 3809 
L 1275 3500 
L 2222 3500 
L 2222 3053 
L 1275 3053 
L 1275 0 
L 697 0 
L 697 3053 
L 147 3053 
L 147 3500 
L 697 3500 
L 697 3744 
Q 697 4328 969 4595 
Q 1241 4863 1831 4863 
L 2375 4863 
z
" id="DejaVuSans-66" transform="scale(0.015625)"/>
      <path d="M 628 4666 
L 1259 4666 
L 1259 2694 
L 3353 4666 
L 4166 4666 
L 1850 2491 
L 4331 0 
L 3500 0 
L 1259 2247 
L 1259 0 
L 628 0 
L 628 4666 
z
" id="DejaVuSans-4b" transform="scale(0.015625)"/>
      <path d="M 628 4666 
L 1569 4666 
L 2759 1491 
L 3956 4666 
L 4897 4666 
L 4897 0 
L 4281 0 
L 4281 4097 
L 3078 897 
L 2444 897 
L 1241 4097 
L 1241 0 
L 628 0 
L 628 4666 
z
" id="DejaVuSans-4d" transform="scale(0.015625)"/>
      <path d="M 2834 3397 
L 2834 2853 
Q 2591 2978 2328 3040 
Q 2066 3103 1784 3103 
Q 1356 3103 1142 2972 
Q 928 2841 928 2578 
Q 928 2378 1081 2264 
Q 1234 2150 1697 2047 
L 1894 2003 
Q 2506 1872 2764 1633 
Q 3022 1394 3022 966 
Q 3022 478 2636 193 
Q 2250 -91 1575 -91 
Q 1294 -91 989 -36 
Q 684 19 347 128 
L 347 722 
Q 666 556 975 473 
Q 1284 391 1588 391 
Q 1994 391 2212 530 
Q 2431 669 2431 922 
Q 2431 1156 2273 1281 
Q 2116 1406 1581 1522 
L 1381 1569 
Q 847 1681 609 1914 
Q 372 2147 372 2553 
Q 372 3047 722 3315 
Q 1072 3584 1716 3584 
Q 2034 3584 2315 3537 
Q 2597 3491 2834 3397 
z
" id="DejaVuSans-73" transform="scale(0.015625)"/>
      <path d="M 544 1381 
L 544 3500 
L 1119 3500 
L 1119 1403 
Q 1119 906 1312 657 
Q 1506 409 1894 409 
Q 2359 409 2629 706 
Q 2900 1003 2900 1516 
L 2900 3500 
L 3475 3500 
L 3475 0 
L 2900 0 
L 2900 538 
Q 2691 219 2414 64 
Q 2138 -91 1772 -91 
Q 1169 -91 856 284 
Q 544 659 544 1381 
z
M 1991 3584 
L 1991 3584 
z
" id="DejaVuSans-75" transform="scale(0.015625)"/>
      <path d="M 2906 1791 
Q 2906 2416 2648 2759 
Q 2391 3103 1925 3103 
Q 1463 3103 1205 2759 
Q 947 2416 947 1791 
Q 947 1169 1205 825 
Q 1463 481 1925 481 
Q 2391 481 2648 825 
Q 2906 1169 2906 1791 
z
M 3481 434 
Q 3481 -459 3084 -895 
Q 2688 -1331 1869 -1331 
Q 1566 -1331 1297 -1286 
Q 1028 -1241 775 -1147 
L 775 -588 
Q 1028 -725 1275 -790 
Q 1522 -856 1778 -856 
Q 2344 -856 2625 -561 
Q 2906 -266 2906 331 
L 2906 616 
Q 2728 306 2450 153 
Q 2172 0 1784 0 
Q 1141 0 747 490 
Q 353 981 353 1791 
Q 353 2603 747 3093 
Q 1141 3584 1784 3584 
Q 2172 3584 2450 3431 
Q 2728 3278 2906 2969 
L 2906 3500 
L 3481 3500 
L 3481 434 
z
" id="DejaVuSans-67" transform="scale(0.015625)"/>
     </defs>
     <use xlink:href="#DejaVuSans-32"/>
     <use x="63.623047" xlink:href="#DejaVuSans-44"/>
     <use x="140.625" xlink:href="#DejaVuSans-20"/>
     <use x="172.412109" xlink:href="#DejaVuSans-50"/>
     <use x="232.714844" xlink:href="#DejaVuSans-43"/>
     <use x="302.539062" xlink:href="#DejaVuSans-41"/>
     <use x="370.947266" xlink:href="#DejaVuSans-20"/>
     <use x="402.734375" xlink:href="#DejaVuSans-6f"/>
     <use x="463.916016" xlink:href="#DejaVuSans-66"/>
     <use x="499.121094" xlink:href="#DejaVuSans-20"/>
     <use x="530.908203" xlink:href="#DejaVuSans-4b"/>
     <use x="596.484375" xlink:href="#DejaVuSans-4d"/>
     <use x="682.763672" xlink:href="#DejaVuSans-65"/>
     <use x="744.287109" xlink:href="#DejaVuSans-61"/>
     <use x="805.566406" xlink:href="#DejaVuSans-6e"/>
     <use x="868.945312" xlink:href="#DejaVuSans-73"/>
     <use x="921.044922" xlink:href="#DejaVuSans-20"/>
     <use x="952.832031" xlink:href="#DejaVuSans-43"/>
     <use x="1022.65625" xlink:href="#DejaVuSans-6c"/>
     <use x="1050.439453" xlink:href="#DejaVuSans-75"/>
     <use x="1113.818359" xlink:href="#DejaVuSans-73"/>
     <use x="1165.917969" xlink:href="#DejaVuSans-74"/>
     <use x="1205.126953" xlink:href="#DejaVuSans-65"/>
     <use x="1266.650391" xlink:href="#DejaVuSans-72"/>
     <use x="1307.763672" xlink:href="#DejaVuSans-69"/>
     <use x="1335.546875" xlink:href="#DejaVuSans-6e"/>
     <use x="1398.925781" xlink:href="#DejaVuSans-67"/>
    </g>
   </g>
  </g>
 </g>
 <defs>
  <clipPath id="pc7538331e0">
   <rect height="443.52" width="558" x="55.428906" y="18.718125"/>
  </clipPath>
 </defs>
</svg>
